<mxfile host="app.diagrams.net" modified="2024-01-11T17:59:01.930Z" agent="Mozilla/5.0 (Windows NT 10.0; Win64; x64) AppleWebKit/537.36 (KHTML, like Gecko) Chrome/120.0.0.0 Safari/537.36 Edg/120.0.0.0" etag="F39wwg3O-513KTekf6ur" version="22.1.18" type="device">
  <diagram id="C5RBs43oDa-KdzZeNtuy" name="Page-1">
    <mxGraphModel dx="595" dy="325" grid="1" gridSize="10" guides="1" tooltips="1" connect="1" arrows="1" fold="1" page="1" pageScale="1" pageWidth="827" pageHeight="1169" math="0" shadow="0">
      <root>
        <mxCell id="WIyWlLk6GJQsqaUBKTNV-0" />
        <mxCell id="WIyWlLk6GJQsqaUBKTNV-1" parent="WIyWlLk6GJQsqaUBKTNV-0" />
        <mxCell id="pc_tydmNzXYO1qIxNYTU-1" value="start" style="ellipse;whiteSpace=wrap;html=1;" parent="WIyWlLk6GJQsqaUBKTNV-1" vertex="1">
          <mxGeometry x="354" y="20" width="120" height="80" as="geometry" />
        </mxCell>
        <mxCell id="pc_tydmNzXYO1qIxNYTU-2" value="" style="endArrow=classic;html=1;rounded=0;exitX=0.5;exitY=1;exitDx=0;exitDy=0;" parent="WIyWlLk6GJQsqaUBKTNV-1" source="pc_tydmNzXYO1qIxNYTU-1" edge="1">
          <mxGeometry width="50" height="50" relative="1" as="geometry">
            <mxPoint x="380" y="290" as="sourcePoint" />
            <mxPoint x="414" y="150" as="targetPoint" />
          </mxGeometry>
        </mxCell>
        <mxCell id="k7XM8WsnCsQo37oX1WuV-0" value="Import&#39;ирование библиотек" style="rounded=0;whiteSpace=wrap;html=1;" vertex="1" parent="WIyWlLk6GJQsqaUBKTNV-1">
          <mxGeometry x="354" y="150" width="120" height="60" as="geometry" />
        </mxCell>
        <mxCell id="k7XM8WsnCsQo37oX1WuV-2" value="" style="endArrow=classic;html=1;rounded=0;exitX=0.5;exitY=1;exitDx=0;exitDy=0;entryX=0.5;entryY=0;entryDx=0;entryDy=0;" edge="1" parent="WIyWlLk6GJQsqaUBKTNV-1" target="k7XM8WsnCsQo37oX1WuV-4">
          <mxGeometry width="50" height="50" relative="1" as="geometry">
            <mxPoint x="414" y="210" as="sourcePoint" />
            <mxPoint x="414" y="260" as="targetPoint" />
          </mxGeometry>
        </mxCell>
        <mxCell id="k7XM8WsnCsQo37oX1WuV-4" value="Создание переменных, бота, словаря с участниками" style="rounded=0;whiteSpace=wrap;html=1;" vertex="1" parent="WIyWlLk6GJQsqaUBKTNV-1">
          <mxGeometry x="354" y="260" width="120" height="60" as="geometry" />
        </mxCell>
        <mxCell id="k7XM8WsnCsQo37oX1WuV-5" value="" style="endArrow=classic;html=1;rounded=0;exitX=0.5;exitY=1;exitDx=0;exitDy=0;" edge="1" parent="WIyWlLk6GJQsqaUBKTNV-1">
          <mxGeometry width="50" height="50" relative="1" as="geometry">
            <mxPoint x="414" y="320" as="sourcePoint" />
            <mxPoint x="414" y="370" as="targetPoint" />
          </mxGeometry>
        </mxCell>
        <mxCell id="k7XM8WsnCsQo37oX1WuV-6" value="Очищение базы данных" style="rounded=0;whiteSpace=wrap;html=1;" vertex="1" parent="WIyWlLk6GJQsqaUBKTNV-1">
          <mxGeometry x="354" y="370" width="120" height="60" as="geometry" />
        </mxCell>
        <mxCell id="k7XM8WsnCsQo37oX1WuV-7" value="" style="endArrow=classic;html=1;rounded=0;exitX=0.5;exitY=1;exitDx=0;exitDy=0;" edge="1" parent="WIyWlLk6GJQsqaUBKTNV-1">
          <mxGeometry width="50" height="50" relative="1" as="geometry">
            <mxPoint x="414" y="430" as="sourcePoint" />
            <mxPoint x="414" y="480" as="targetPoint" />
          </mxGeometry>
        </mxCell>
        <mxCell id="k7XM8WsnCsQo37oX1WuV-8" value="start: запрос согласия на обработку персональных данных" style="rounded=0;whiteSpace=wrap;html=1;" vertex="1" parent="WIyWlLk6GJQsqaUBKTNV-1">
          <mxGeometry x="200" y="570" width="120" height="80" as="geometry" />
        </mxCell>
        <mxCell id="k7XM8WsnCsQo37oX1WuV-11" value="" style="endArrow=classic;html=1;rounded=0;exitX=0.5;exitY=1;exitDx=0;exitDy=0;" edge="1" parent="WIyWlLk6GJQsqaUBKTNV-1">
          <mxGeometry width="50" height="50" relative="1" as="geometry">
            <mxPoint x="259.71" y="650" as="sourcePoint" />
            <mxPoint x="259.71" y="700" as="targetPoint" />
            <Array as="points">
              <mxPoint x="259.71" y="660" />
              <mxPoint x="259.71" y="680" />
            </Array>
          </mxGeometry>
        </mxCell>
        <mxCell id="k7XM8WsnCsQo37oX1WuV-12" value="(Не)согласен" style="shape=parallelogram;perimeter=parallelogramPerimeter;whiteSpace=wrap;html=1;fixedSize=1;" vertex="1" parent="WIyWlLk6GJQsqaUBKTNV-1">
          <mxGeometry x="200" y="700" width="120" height="50" as="geometry" />
        </mxCell>
        <mxCell id="k7XM8WsnCsQo37oX1WuV-13" value="" style="endArrow=classic;html=1;rounded=0;exitX=0.5;exitY=1;exitDx=0;exitDy=0;" edge="1" parent="WIyWlLk6GJQsqaUBKTNV-1">
          <mxGeometry width="50" height="50" relative="1" as="geometry">
            <mxPoint x="260" y="750" as="sourcePoint" />
            <mxPoint x="260" y="800" as="targetPoint" />
          </mxGeometry>
        </mxCell>
        <mxCell id="k7XM8WsnCsQo37oX1WuV-14" value="pers_data: обработка ответа согласия" style="rounded=0;whiteSpace=wrap;html=1;" vertex="1" parent="WIyWlLk6GJQsqaUBKTNV-1">
          <mxGeometry x="200" y="800" width="120" height="60" as="geometry" />
        </mxCell>
        <mxCell id="k7XM8WsnCsQo37oX1WuV-15" value="pers_data: проверка на ввод с клавиатуры" style="rounded=0;whiteSpace=wrap;html=1;" vertex="1" parent="WIyWlLk6GJQsqaUBKTNV-1">
          <mxGeometry x="200" y="800" width="120" height="60" as="geometry" />
        </mxCell>
        <mxCell id="k7XM8WsnCsQo37oX1WuV-17" value="" style="endArrow=classic;html=1;rounded=0;exitX=0.5;exitY=1;exitDx=0;exitDy=0;" edge="1" parent="WIyWlLk6GJQsqaUBKTNV-1">
          <mxGeometry width="50" height="50" relative="1" as="geometry">
            <mxPoint x="260" y="860" as="sourcePoint" />
            <mxPoint x="260" y="910" as="targetPoint" />
          </mxGeometry>
        </mxCell>
        <mxCell id="k7XM8WsnCsQo37oX1WuV-18" value="pers_data: запрос ФИО" style="rounded=0;whiteSpace=wrap;html=1;" vertex="1" parent="WIyWlLk6GJQsqaUBKTNV-1">
          <mxGeometry x="200" y="910" width="120" height="60" as="geometry" />
        </mxCell>
        <mxCell id="k7XM8WsnCsQo37oX1WuV-21" value="" style="endArrow=classic;html=1;rounded=0;exitX=0.5;exitY=1;exitDx=0;exitDy=0;" edge="1" parent="WIyWlLk6GJQsqaUBKTNV-1">
          <mxGeometry width="50" height="50" relative="1" as="geometry">
            <mxPoint x="260" y="970" as="sourcePoint" />
            <mxPoint x="260" y="1020" as="targetPoint" />
          </mxGeometry>
        </mxCell>
        <mxCell id="k7XM8WsnCsQo37oX1WuV-22" value="ФИО" style="shape=parallelogram;perimeter=parallelogramPerimeter;whiteSpace=wrap;html=1;fixedSize=1;" vertex="1" parent="WIyWlLk6GJQsqaUBKTNV-1">
          <mxGeometry x="200" y="1020" width="120" height="60" as="geometry" />
        </mxCell>
        <mxCell id="k7XM8WsnCsQo37oX1WuV-23" value="" style="endArrow=classic;html=1;rounded=0;exitX=0.5;exitY=1;exitDx=0;exitDy=0;" edge="1" parent="WIyWlLk6GJQsqaUBKTNV-1">
          <mxGeometry width="50" height="50" relative="1" as="geometry">
            <mxPoint x="260" y="1080" as="sourcePoint" />
            <mxPoint x="260" y="1130" as="targetPoint" />
          </mxGeometry>
        </mxCell>
        <mxCell id="k7XM8WsnCsQo37oX1WuV-24" value="fio: проверка на кол-во слов и сохранение ФИО" style="rounded=0;whiteSpace=wrap;html=1;" vertex="1" parent="WIyWlLk6GJQsqaUBKTNV-1">
          <mxGeometry x="200" y="1130" width="120" height="60" as="geometry" />
        </mxCell>
        <mxCell id="k7XM8WsnCsQo37oX1WuV-26" value="Админ?" style="rhombus;whiteSpace=wrap;html=1;" vertex="1" parent="WIyWlLk6GJQsqaUBKTNV-1">
          <mxGeometry x="369.5" y="480" width="89" height="90" as="geometry" />
        </mxCell>
        <mxCell id="k7XM8WsnCsQo37oX1WuV-28" value="" style="endArrow=classic;html=1;rounded=0;exitX=0;exitY=0.5;exitDx=0;exitDy=0;" edge="1" parent="WIyWlLk6GJQsqaUBKTNV-1" source="k7XM8WsnCsQo37oX1WuV-26">
          <mxGeometry relative="1" as="geometry">
            <mxPoint x="350" y="610" as="sourcePoint" />
            <mxPoint x="260" y="570" as="targetPoint" />
            <Array as="points">
              <mxPoint x="260" y="525" />
            </Array>
          </mxGeometry>
        </mxCell>
        <mxCell id="k7XM8WsnCsQo37oX1WuV-29" value="no" style="edgeLabel;resizable=0;html=1;align=center;verticalAlign=middle;" connectable="0" vertex="1" parent="k7XM8WsnCsQo37oX1WuV-28">
          <mxGeometry relative="1" as="geometry" />
        </mxCell>
        <mxCell id="k7XM8WsnCsQo37oX1WuV-30" value="" style="endArrow=classic;html=1;rounded=0;exitX=1;exitY=0.5;exitDx=0;exitDy=0;" edge="1" parent="WIyWlLk6GJQsqaUBKTNV-1" source="k7XM8WsnCsQo37oX1WuV-26">
          <mxGeometry relative="1" as="geometry">
            <mxPoint x="450" y="530" as="sourcePoint" />
            <mxPoint x="560" y="570" as="targetPoint" />
            <Array as="points">
              <mxPoint x="560" y="525" />
            </Array>
          </mxGeometry>
        </mxCell>
        <mxCell id="k7XM8WsnCsQo37oX1WuV-31" value="yes" style="edgeLabel;resizable=0;html=1;align=center;verticalAlign=middle;" connectable="0" vertex="1" parent="k7XM8WsnCsQo37oX1WuV-30">
          <mxGeometry relative="1" as="geometry" />
        </mxCell>
        <mxCell id="k7XM8WsnCsQo37oX1WuV-34" value="" style="endArrow=classic;html=1;rounded=0;exitX=0.5;exitY=1;exitDx=0;exitDy=0;" edge="1" parent="WIyWlLk6GJQsqaUBKTNV-1">
          <mxGeometry width="50" height="50" relative="1" as="geometry">
            <mxPoint x="260" y="1190" as="sourcePoint" />
            <mxPoint x="260" y="1240" as="targetPoint" />
          </mxGeometry>
        </mxCell>
        <mxCell id="k7XM8WsnCsQo37oX1WuV-35" value="fio: запрос пола" style="rounded=0;whiteSpace=wrap;html=1;" vertex="1" parent="WIyWlLk6GJQsqaUBKTNV-1">
          <mxGeometry x="200" y="1240" width="120" height="60" as="geometry" />
        </mxCell>
        <mxCell id="k7XM8WsnCsQo37oX1WuV-36" value="" style="endArrow=classic;html=1;rounded=0;exitX=0.5;exitY=1;exitDx=0;exitDy=0;" edge="1" parent="WIyWlLk6GJQsqaUBKTNV-1">
          <mxGeometry width="50" height="50" relative="1" as="geometry">
            <mxPoint x="260" y="1300" as="sourcePoint" />
            <mxPoint x="260" y="1350" as="targetPoint" />
          </mxGeometry>
        </mxCell>
        <mxCell id="k7XM8WsnCsQo37oX1WuV-37" value="Пол" style="shape=parallelogram;perimeter=parallelogramPerimeter;whiteSpace=wrap;html=1;fixedSize=1;" vertex="1" parent="WIyWlLk6GJQsqaUBKTNV-1">
          <mxGeometry x="200" y="1350" width="120" height="60" as="geometry" />
        </mxCell>
        <mxCell id="k7XM8WsnCsQo37oX1WuV-38" value="" style="endArrow=classic;html=1;rounded=0;exitX=0.5;exitY=1;exitDx=0;exitDy=0;" edge="1" parent="WIyWlLk6GJQsqaUBKTNV-1">
          <mxGeometry width="50" height="50" relative="1" as="geometry">
            <mxPoint x="260" y="1410" as="sourcePoint" />
            <mxPoint x="260" y="1460" as="targetPoint" />
          </mxGeometry>
        </mxCell>
        <mxCell id="k7XM8WsnCsQo37oX1WuV-39" value="sex: проверка на ввод с клавиатуры и сохранение пола" style="rounded=0;whiteSpace=wrap;html=1;" vertex="1" parent="WIyWlLk6GJQsqaUBKTNV-1">
          <mxGeometry x="200" y="1460" width="120" height="60" as="geometry" />
        </mxCell>
        <mxCell id="k7XM8WsnCsQo37oX1WuV-40" value="" style="endArrow=classic;html=1;rounded=0;exitX=0.5;exitY=1;exitDx=0;exitDy=0;" edge="1" parent="WIyWlLk6GJQsqaUBKTNV-1">
          <mxGeometry width="50" height="50" relative="1" as="geometry">
            <mxPoint x="260" y="1520" as="sourcePoint" />
            <mxPoint x="260" y="1570" as="targetPoint" />
          </mxGeometry>
        </mxCell>
        <mxCell id="k7XM8WsnCsQo37oX1WuV-41" value="sex: запрос года рождения" style="rounded=0;whiteSpace=wrap;html=1;" vertex="1" parent="WIyWlLk6GJQsqaUBKTNV-1">
          <mxGeometry x="200" y="1570" width="120" height="60" as="geometry" />
        </mxCell>
        <mxCell id="k7XM8WsnCsQo37oX1WuV-42" value="" style="endArrow=classic;html=1;rounded=0;exitX=0.5;exitY=1;exitDx=0;exitDy=0;" edge="1" parent="WIyWlLk6GJQsqaUBKTNV-1">
          <mxGeometry width="50" height="50" relative="1" as="geometry">
            <mxPoint x="260" y="1630" as="sourcePoint" />
            <mxPoint x="260" y="1680" as="targetPoint" />
          </mxGeometry>
        </mxCell>
        <mxCell id="k7XM8WsnCsQo37oX1WuV-43" value="Год рождения" style="shape=parallelogram;perimeter=parallelogramPerimeter;whiteSpace=wrap;html=1;fixedSize=1;" vertex="1" parent="WIyWlLk6GJQsqaUBKTNV-1">
          <mxGeometry x="200" y="1680" width="120" height="60" as="geometry" />
        </mxCell>
        <mxCell id="k7XM8WsnCsQo37oX1WuV-44" value="" style="endArrow=classic;html=1;rounded=0;exitX=0.5;exitY=1;exitDx=0;exitDy=0;" edge="1" parent="WIyWlLk6GJQsqaUBKTNV-1">
          <mxGeometry width="50" height="50" relative="1" as="geometry">
            <mxPoint x="260" y="1740" as="sourcePoint" />
            <mxPoint x="260" y="1790" as="targetPoint" />
          </mxGeometry>
        </mxCell>
        <mxCell id="k7XM8WsnCsQo37oX1WuV-45" value="born_year: проверка на ввод с клавиатуры и сохранение года рождения" style="rounded=0;whiteSpace=wrap;html=1;" vertex="1" parent="WIyWlLk6GJQsqaUBKTNV-1">
          <mxGeometry x="200" y="1790" width="120" height="80" as="geometry" />
        </mxCell>
        <mxCell id="k7XM8WsnCsQo37oX1WuV-46" value="" style="endArrow=classic;html=1;rounded=0;exitX=0.5;exitY=1;exitDx=0;exitDy=0;" edge="1" parent="WIyWlLk6GJQsqaUBKTNV-1">
          <mxGeometry width="50" height="50" relative="1" as="geometry">
            <mxPoint x="259.71" y="1870" as="sourcePoint" />
            <mxPoint x="259.71" y="1920" as="targetPoint" />
          </mxGeometry>
        </mxCell>
        <mxCell id="k7XM8WsnCsQo37oX1WuV-47" value="born_year: запрос веса" style="rounded=0;whiteSpace=wrap;html=1;" vertex="1" parent="WIyWlLk6GJQsqaUBKTNV-1">
          <mxGeometry x="200" y="1920" width="120" height="60" as="geometry" />
        </mxCell>
        <mxCell id="k7XM8WsnCsQo37oX1WuV-49" value="" style="endArrow=classic;html=1;rounded=0;exitX=0.5;exitY=1;exitDx=0;exitDy=0;" edge="1" parent="WIyWlLk6GJQsqaUBKTNV-1">
          <mxGeometry width="50" height="50" relative="1" as="geometry">
            <mxPoint x="260" y="1980" as="sourcePoint" />
            <mxPoint x="260" y="2030" as="targetPoint" />
          </mxGeometry>
        </mxCell>
        <mxCell id="k7XM8WsnCsQo37oX1WuV-50" value="Вес" style="shape=parallelogram;perimeter=parallelogramPerimeter;whiteSpace=wrap;html=1;fixedSize=1;" vertex="1" parent="WIyWlLk6GJQsqaUBKTNV-1">
          <mxGeometry x="200" y="2030" width="120" height="60" as="geometry" />
        </mxCell>
        <mxCell id="k7XM8WsnCsQo37oX1WuV-51" value="" style="endArrow=classic;html=1;rounded=0;exitX=0.5;exitY=1;exitDx=0;exitDy=0;" edge="1" parent="WIyWlLk6GJQsqaUBKTNV-1">
          <mxGeometry width="50" height="50" relative="1" as="geometry">
            <mxPoint x="260" y="2090" as="sourcePoint" />
            <mxPoint x="260" y="2140" as="targetPoint" />
          </mxGeometry>
        </mxCell>
        <mxCell id="k7XM8WsnCsQo37oX1WuV-52" value="weight:&amp;nbsp; и сохранение года рождения" style="rounded=0;whiteSpace=wrap;html=1;" vertex="1" parent="WIyWlLk6GJQsqaUBKTNV-1">
          <mxGeometry x="200" y="2140" width="120" height="80" as="geometry" />
        </mxCell>
        <mxCell id="k7XM8WsnCsQo37oX1WuV-53" value="" style="endArrow=classic;html=1;rounded=0;exitX=0.5;exitY=1;exitDx=0;exitDy=0;" edge="1" parent="WIyWlLk6GJQsqaUBKTNV-1">
          <mxGeometry width="50" height="50" relative="1" as="geometry">
            <mxPoint x="259.71" y="2220" as="sourcePoint" />
            <mxPoint x="259.71" y="2270" as="targetPoint" />
          </mxGeometry>
        </mxCell>
        <mxCell id="k7XM8WsnCsQo37oX1WuV-54" value="born_year: запрос пола" style="rounded=0;whiteSpace=wrap;html=1;" vertex="1" parent="WIyWlLk6GJQsqaUBKTNV-1">
          <mxGeometry x="200" y="2270" width="120" height="60" as="geometry" />
        </mxCell>
      </root>
    </mxGraphModel>
  </diagram>
</mxfile>
